<svg xmlns="http://www.w3.org/2000/svg" xmlns:xlink="http://www.w3.org/1999/xlink" width="1920" zoomAndPan="magnify" viewBox="0 0 1440 809.999993" height="1080" preserveAspectRatio="xMidYMid meet" version="1.0"><defs><clipPath id="f776427268"><path d="M 384.941406 70.347656 L 1056 70.347656 L 1056 739.324219 L 384.941406 739.324219 Z M 384.941406 70.347656 " clip-rule="nonzero"/></clipPath><clipPath id="83f7b648a7"><path d="M 406.09375 70.347656 L 1034.316406 70.347656 C 1039.925781 70.347656 1045.308594 72.578125 1049.273438 76.542969 C 1053.242188 80.511719 1055.472656 85.890625 1055.472656 91.503906 L 1055.472656 718.171875 C 1055.472656 729.855469 1046 739.324219 1034.316406 739.324219 L 406.09375 739.324219 C 394.410156 739.324219 384.941406 729.855469 384.941406 718.171875 L 384.941406 91.503906 C 384.941406 79.820312 394.410156 70.347656 406.09375 70.347656 Z M 406.09375 70.347656 " clip-rule="nonzero"/></clipPath><clipPath id="1ed0d60f2d"><path d="M 483 165.527344 L 958 165.527344 L 958 644.304688 L 483 644.304688 Z M 483 165.527344 " clip-rule="nonzero"/></clipPath></defs><g clip-path="url(#f776427268)"><g clip-path="url(#83f7b648a7)"><path fill="#057ee6" d="M 384.941406 70.347656 L 1056.027344 70.347656 L 1056.027344 739.324219 L 384.941406 739.324219 Z M 384.941406 70.347656 " fill-opacity="1" fill-rule="nonzero"/></g></g><g clip-path="url(#1ed0d60f2d)"><path fill="#a9d6ff" d="M 537.296875 325.730469 L 571.464844 307.914062 C 571.464844 307.914062 569.851562 342.980469 568.226562 386.601562 C 566.597656 430.222656 564.960938 516.816406 564.960938 516.914062 C 564.960938 522.230469 565.199219 522.5 565.199219 522.570312 C 598.992188 522.570312 647.238281 564.417969 647.238281 644.15625 L 793.800781 644.15625 C 793.800781 564.417969 842.117188 523.847656 875.78125 523.847656 C 876.039062 523.847656 876.039062 523.847656 876.039062 523.601562 C 876.039062 522.878906 876.050781 522.113281 876.050781 521.359375 C 876.359375 454.921875 869.589844 308.089844 869.574219 307.914062 L 903.726562 325.730469 C 927.320312 324.066406 970.945312 260.597656 954.042969 246.691406 C 943.804688 238.269531 893.800781 198.808594 852.179688 182.109375 C 848.347656 180.578125 844.695312 179.152344 841.191406 177.835938 C 831.558594 174.222656 823.132812 171.402344 816 169.210938 C 816 169.199219 816 169.199219 816 169.199219 C 813.515625 168.433594 811.175781 167.75 809 167.132812 C 808.136719 166.886719 807.308594 166.648438 806.5 166.433594 C 805.546875 166.164062 804.632812 165.921875 803.761719 165.683594 C 799.5 207.933594 763.832031 240.933594 720.433594 240.933594 C 677.082031 240.933594 641.40625 207.960938 637.121094 165.734375 C 636.355469 165.9375 635.574219 166.152344 634.742188 166.378906 C 633.871094 166.609375 632.957031 166.863281 632.03125 167.132812 C 630.632812 167.535156 629.15625 167.964844 627.625 168.421875 C 626.855469 168.652344 626.078125 168.890625 625.285156 169.132812 C 625.203125 169.148438 625.125 169.175781 625.042969 169.203125 C 625.042969 169.203125 625.042969 169.203125 625.042969 169.214844 C 621.46875 170.316406 617.585938 171.566406 613.382812 172.992188 C 609.191406 174.425781 604.675781 176.039062 599.851562 177.839844 C 596.347656 179.160156 592.675781 180.582031 588.847656 182.113281 C 547.242188 198.808594 497.183594 238.210938 487 246.691406 C 469.613281 261.160156 513.707031 324.0625 537.296875 325.730469 Z M 537.296875 325.730469 " fill-opacity="1" fill-rule="nonzero"/></g><path fill="#5cb2ff" d="M 727.035156 505.480469 C 705.226562 505.191406 702.136719 467.273438 700.457031 451.144531 C 698.800781 431.917969 699.039062 412.113281 699.417969 392.929688 C 699.835938 363.6875 699.832031 334.132812 706.910156 305.488281 C 709.675781 295.351562 715.03125 279.691406 728.417969 280.691406 C 741.054688 281.335938 748.058594 293.351562 750.878906 304.027344 C 756.996094 327.933594 755.257812 352.957031 754.386719 377.292969 C 753.5 401.480469 753.824219 425.589844 751.183594 449.707031 C 749.386719 464.082031 746.183594 505.089844 727.035156 505.480469 Z M 727.035156 495.3125 C 732.261719 494.625 736.023438 481.34375 737.375 476.488281 C 744.191406 448.914062 745.636719 419.933594 745.921875 391.523438 C 746.367188 372.210938 747.523438 353.203125 746.40625 334.054688 C 745.472656 321.449219 743.746094 298.6875 732.609375 291.753906 C 730.910156 290.832031 728.921875 290.375 726.925781 290.457031 C 724.21875 290.832031 722.894531 293.171875 721.382812 295.726562 C 715.535156 307.878906 714.363281 322.21875 712.996094 335.808594 C 711.785156 349.976562 711.363281 364.339844 711.3125 378.605469 C 711.558594 402.339844 710.453125 426.664062 711.976562 450.28125 C 712.734375 460.511719 715.015625 494.203125 727.035156 495.3125 Z M 775.011719 287.035156 C 774.703125 281.855469 767.3125 281.984375 767.054688 287.035156 C 766.269531 326 765.503906 365.011719 768.742188 403.9375 C 770.871094 422.570312 773.621094 450.96875 794.621094 457.824219 C 798.917969 459.25 803.285156 459.621094 807.457031 459.578125 C 809.585938 459.550781 811.339844 457.84375 811.394531 455.699219 C 811.449219 453.480469 809.675781 451.644531 807.457031 451.621094 C 800.65625 451.46875 794.007812 449.855469 789.550781 444.652344 C 776.972656 430.25 777.265625 388.09375 776.414062 368.476562 C 775.773438 341.386719 775.746094 314.121094 775.011719 287.035156 Z M 819.089844 287.035156 C 818.695312 281.929688 811.449219 282.128906 811.132812 287.035156 C 809.34375 324.882812 811.046875 362.769531 810.027344 400.53125 C 809.042969 424.089844 808.378906 476.253906 789.253906 491.261719 C 786.132812 493.585938 782.457031 494.847656 778.421875 494.972656 C 776.28125 494.996094 774.527344 496.734375 774.496094 498.894531 C 774.464844 501.089844 776.222656 502.898438 778.421875 502.929688 C 781.144531 502.96875 783.945312 502.640625 786.652344 501.851562 C 818.15625 492.199219 819.160156 428.097656 820.703125 400.867188 C 821.914062 362.914062 820.859375 324.910156 819.089844 287.035156 Z M 641.085938 440.1875 C 635.757812 440.296875 635.761719 448.023438 641.085938 448.148438 C 655.847656 448.054688 674.488281 454.082031 677.683594 470.265625 C 677.722656 470.503906 677.726562 470.742188 677.75 470.980469 L 677.890625 472.410156 C 677.878906 473.113281 677.84375 473.835938 677.835938 474.550781 C 677.761719 475.128906 677.589844 476.027344 677.507812 476.664062 C 677.152344 478.023438 676.691406 479.421875 676.0625 480.707031 C 668.820312 493.789062 652.171875 496.308594 638.105469 496.558594 C 638.105469 496.558594 642.085938 500.535156 642.085938 500.535156 C 644.097656 447.167969 644.222656 393.039062 643.546875 339.617188 C 643.285156 321.734375 642.875 303.855469 642.085938 285.976562 C 642.085938 285.976562 638.972656 289.863281 638.972656 289.863281 C 652.644531 288.027344 663.507812 298.9375 668.890625 310.515625 C 676.597656 327.222656 678.363281 346.113281 678.8125 364.429688 C 679.023438 372.753906 678.785156 380.964844 677.695312 389.074219 C 676.707031 396.546875 674.980469 404.054688 672.226562 411.074219 C 666.535156 425.8125 654.292969 438.988281 638.042969 440.535156 C 632.710938 440.765625 632.84375 448.46875 638.179688 448.492188 C 642.964844 448.234375 647.5625 446.84375 651.910156 444.949219 C 681.875 431.046875 687.664062 393.871094 686.773438 364.269531 C 686.054688 339.710938 683.164062 308.246094 664.039062 290.558594 C 657.855469 284.980469 649.585938 281.546875 641.183594 281.703125 C 639.859375 281.753906 638.574219 281.800781 637.25 282.089844 C 635.546875 282.410156 634.222656 283.867188 634.144531 285.671875 C 632.960938 312.589844 632.605469 339.507812 632.371094 366.4375 C 632.210938 410.886719 632.382812 456.21875 634.128906 500.578125 C 634.128906 502.769531 635.917969 504.539062 638.109375 504.519531 C 647.847656 504.425781 657.886719 503.210938 667.277344 498.902344 C 683.339844 491.617188 691.5 474.4375 681.480469 458.554688 C 672.863281 445.070312 656.191406 440.238281 641.085938 440.1875 Z M 641.085938 440.1875 " fill-opacity="1" fill-rule="nonzero"/></svg>