<svg xmlns="http://www.w3.org/2000/svg" xmlns:xlink="http://www.w3.org/1999/xlink" width="1920" zoomAndPan="magnify" viewBox="0 0 1440 809.999993" height="1080" preserveAspectRatio="xMidYMid meet" version="1.0"><defs><clipPath id="31de9d2ae3"><path d="M 384.941406 70.347656 L 1056 70.347656 L 1056 739.324219 L 384.941406 739.324219 Z M 384.941406 70.347656 " clip-rule="nonzero"/></clipPath><clipPath id="b5f920e6f4"><path d="M 406.09375 70.347656 L 1034.316406 70.347656 C 1039.925781 70.347656 1045.308594 72.578125 1049.273438 76.542969 C 1053.242188 80.511719 1055.472656 85.890625 1055.472656 91.503906 L 1055.472656 718.171875 C 1055.472656 729.855469 1046 739.324219 1034.316406 739.324219 L 406.09375 739.324219 C 394.410156 739.324219 384.941406 729.855469 384.941406 718.171875 L 384.941406 91.503906 C 384.941406 79.820312 394.410156 70.347656 406.09375 70.347656 Z M 406.09375 70.347656 " clip-rule="nonzero"/></clipPath><clipPath id="f2b4ecdf98"><path d="M 485 168.265625 L 955 168.265625 L 955 641.402344 L 485 641.402344 Z M 485 168.265625 " clip-rule="nonzero"/></clipPath></defs><g clip-path="url(#31de9d2ae3)"><g clip-path="url(#b5f920e6f4)"><path fill="#da5162" d="M 384.941406 70.347656 L 1056.027344 70.347656 L 1056.027344 739.324219 L 384.941406 739.324219 Z M 384.941406 70.347656 " fill-opacity="1" fill-rule="nonzero"/></g></g><g clip-path="url(#f2b4ecdf98)"><path fill="#ffb2b2" d="M 950.980469 248.472656 C 940.910156 240.09375 891.414062 201.152344 850.273438 184.648438 C 846.488281 183.132812 842.859375 181.726562 839.394531 180.425781 C 834.625 178.644531 830.160156 177.054688 826.015625 175.632812 C 821.859375 174.226562 818.019531 172.992188 814.484375 171.902344 C 814.484375 171.890625 814.484375 171.890625 814.484375 171.890625 C 814.40625 171.863281 814.328125 171.839844 814.246094 171.824219 C 813.464844 171.582031 812.691406 171.34375 811.933594 171.121094 C 810.421875 170.667969 808.957031 170.242188 807.578125 169.84375 C 806.660156 169.578125 805.757812 169.324219 804.894531 169.101562 C 804.070312 168.875 803.300781 168.664062 802.542969 168.464844 C 798.304688 210.195312 763.035156 242.777344 720.167969 242.777344 C 677.257812 242.773438 641.992188 210.164062 637.78125 168.410156 C 636.917969 168.648438 636.011719 168.886719 635.070312 169.152344 C 634.273438 169.363281 633.449219 169.601562 632.597656 169.839844 C 630.449219 170.449219 628.136719 171.128906 625.679688 171.886719 C 625.679688 171.886719 625.679688 171.886719 625.679688 171.898438 C 618.625 174.0625 610.296875 176.847656 600.769531 180.421875 C 597.304688 181.722656 593.6875 183.128906 589.90625 184.640625 C 548.75 201.152344 499.304688 240.144531 489.183594 248.472656 C 472.472656 262.214844 515.605469 324.933594 538.933594 326.578125 L 572.703125 308.972656 C 572.6875 309.144531 565.992188 454.25 566.296875 519.902344 C 566.296875 520.644531 566.3125 521.40625 566.3125 522.121094 C 566.3125 522.363281 566.3125 522.363281 566.566406 522.363281 C 599.855469 522.363281 647.625 562.457031 647.625 641.257812 L 792.539062 641.257812 C 792.539062 562.457031 840.242188 521.101562 873.652344 521.101562 C 873.652344 521.035156 873.894531 520.769531 873.894531 515.511719 C 873.894531 515.417969 872.273438 429.84375 870.664062 386.734375 C 869.054688 343.625 867.460938 308.972656 867.460938 308.972656 L 901.242188 326.578125 C 924.570312 324.929688 968.167969 262.769531 950.980469 248.472656 Z M 950.980469 248.472656 " fill-opacity="1" fill-rule="nonzero"/></g><path fill="#fe8593" d="M 821.445312 490.753906 L 798.914062 490.753906 C 797.074219 490.753906 795.585938 489.265625 795.585938 487.429688 L 795.585938 309.585938 C 795.585938 307.75 797.074219 306.261719 798.914062 306.261719 C 800.75 306.261719 802.238281 307.75 802.238281 309.585938 L 802.238281 484.105469 L 821.441406 484.105469 C 823.277344 484.105469 824.765625 485.59375 824.765625 487.429688 C 824.765625 489.265625 823.28125 490.753906 821.445312 490.753906 Z M 679.960938 419.851562 C 679.785156 421.640625 681.078125 423.261719 682.878906 423.472656 C 684.703125 423.6875 686.359375 422.386719 686.570312 420.5625 C 687.46875 412.972656 688.152344 405.464844 688.65625 397.886719 C 689.980469 374.953125 691.023438 351.902344 686.261719 329.175781 C 684.164062 320.804688 681.296875 311.28125 672.746094 307.1875 C 662.621094 303.054688 653.269531 309.890625 648.683594 318.601562 C 635.285156 343.636719 636.101562 392.3125 636.136719 421.011719 C 636.503906 438.488281 636.089844 496.867188 662.34375 494.082031 C 667.6875 493.445312 672.328125 490.0625 675.527344 486.085938 C 680.640625 479.808594 683.703125 472.195312 686.144531 464.632812 C 687.335938 460.652344 688.46875 456.753906 689.085938 452.605469 C 689.085938 450.773438 687.59375 449.285156 685.757812 449.289062 C 685.757812 449.289062 663.308594 449.289062 663.308594 449.289062 C 658.917969 449.429688 658.90625 455.789062 663.308594 455.9375 L 685.757812 455.9375 L 682.5 451.949219 C 682.09375 453.625 681.578125 455.433594 681.046875 457.160156 C 678.140625 466.222656 672.226562 482.953125 662.324219 485.605469 C 645.816406 489.054688 645.761719 432.046875 645.742188 420.992188 C 645.78125 395.035156 645.382812 368.605469 650.234375 343.144531 C 651.636719 336.273438 653.488281 329.171875 656.78125 323.113281 C 659.414062 318.253906 663.730469 313.742188 669.15625 315.480469 C 671.476562 316.503906 673.1875 319.003906 674.421875 321.46875 C 684.789062 343.980469 681.789062 394.214844 679.960938 419.851562 Z M 741.429688 467.539062 C 737.070312 470.140625 741.109375 476 745.21875 473.035156 C 758.5625 464.726562 767.300781 450.429688 772.101562 435.804688 C 776.957031 421.027344 777.714844 405.453125 777.148438 390.0625 C 776.5 371.007812 774.78125 351.53125 768.015625 333.511719 C 764.390625 324.207031 759.019531 314.636719 749.8125 309.695312 C 746.871094 308.207031 740.195312 305.546875 739.609375 310.792969 C 738.394531 347.917969 738.101562 385.273438 738.199219 422.417969 C 738.300781 444.710938 738.597656 466.992188 739.601562 489.277344 C 739.6875 490.96875 741.046875 492.363281 742.773438 492.445312 C 744.609375 492.53125 746.167969 491.113281 746.253906 489.277344 C 746.949219 474.421875 747.242188 459.5625 747.472656 444.707031 C 747.9375 400.183594 747.652344 355.496094 746.253906 310.992188 C 746.246094 310.992188 742.929688 314.324219 742.921875 314.316406 C 749.21875 315.449219 753.835938 320.902344 757.183594 326.289062 C 767.730469 344.445312 769.738281 369.496094 770.496094 390.253906 C 771.039062 404.84375 770.363281 419.820312 765.773438 433.753906 C 761.34375 447.101562 753.617188 460.078125 741.429688 467.539062 Z M 776.464844 491.480469 C 777.683594 490.109375 777.554688 488.007812 776.183594 486.785156 C 761.851562 474.089844 759.222656 460.386719 759.183594 460.183594 C 758.867188 458.378906 757.148438 457.167969 755.34375 457.480469 C 753.535156 457.792969 752.320312 459.511719 752.628906 461.320312 C 752.742188 461.972656 755.558594 477.402344 771.769531 491.761719 C 772.402344 492.320312 773.1875 492.597656 773.972656 492.597656 C 774.894531 492.597656 775.804688 492.222656 776.464844 491.480469 Z M 715.367188 489.210938 L 715.367188 310.921875 C 715.367188 309.085938 713.878906 307.601562 712.039062 307.601562 C 710.203125 307.601562 708.714844 309.085938 708.714844 310.921875 L 708.714844 489.210938 C 708.714844 491.046875 710.203125 492.535156 712.039062 492.535156 C 713.878906 492.535156 715.367188 491.042969 715.367188 489.210938 Z M 715.367188 489.210938 " fill-opacity="1" fill-rule="nonzero"/></svg>